FILE "Sentimental Graffiti (Japan).bin" BINARY
  TRACK 01 MODE2/2352
    INDEX 01 00:00:00
  TRACK 02 AUDIO
    INDEX 00 60:15:51
    INDEX 01 60:17:51
  TRACK 03 AUDIO
    INDEX 00 62:20:56
    INDEX 01 62:22:56
